<?xml version="1.0" standalone="no"?>
<!DOCTYPE svg PUBLIC "-//W3C//DTD SVG 20010904//EN"
 "http://www.w3.org/TR/2001/REC-SVG-20010904/DTD/svg10.dtd">
<svg version="1.0" xmlns="http://www.w3.org/2000/svg"
 width="250.000000pt" height="250.000000pt" viewBox="0 0 250.000000 250.000000"
 preserveAspectRatio="xMidYMid meet">
<metadata>
Created by potrace 1.11, written by Peter Selinger 2001-2013
</metadata>
<g transform="translate(0.000000,250.000000) scale(0.100000,-0.100000)"
fill="#000000" stroke="none">
<path d="M10 1250 l0 -1250 1245 0 1245 0 0 1250 0 1250 -1245 0 -1245 0 0
-1250z m760 528 c0 -2 -11 -46 -25 -98 -13 -52 -23 -95 -22 -96 1 -1 71 42
156 97 139 90 158 99 201 99 37 0 53 -5 73 -26 47 -47 45 -70 -48 -442 -47
-188 -85 -349 -85 -357 0 -12 15 -15 66 -15 63 0 65 -1 58 -22 -24 -75 -84
-113 -182 -113 -71 0 -75 1 -103 33 -44 49 -39 90 47 437 42 168 74 308 71
311 -6 6 -286 -173 -299 -190 -4 -6 -40 -142 -80 -303 l-73 -293 -91 0 -92 0
120 478 c65 262 121 483 123 490 3 8 31 12 95 12 49 0 90 -1 90 -2z m1272 -9
c23 -12 48 -67 48 -106 0 -15 -39 -185 -86 -376 -126 -507 -99 -481 -482 -485
-251 -3 -263 -2 -258 15 3 10 39 155 81 323 41 168 83 322 91 342 33 75 107
128 177 128 l35 0 -83 -331 c-59 -236 -80 -332 -71 -335 7 -3 63 -3 126 -2
l114 3 87 347 c47 191 84 350 81 353 -3 3 -128 5 -279 5 -150 0 -273 4 -273 9
0 18 47 77 79 98 33 23 39 23 313 23 181 0 286 -4 300 -11z"/>
</g>
</svg>
